<svg xmlns="http://www.w3.org/2000/svg" xmlns:xlink="http://www.w3.org/1999/xlink" version="1.1" width="540px" height="204px" viewBox="-0.5 -0.5 540 204"><defs><clipPath id="mx-clip-324-31-182-34-0"><rect x="324" y="31" width="182" height="34"/></clipPath><clipPath id="mx-clip-324-73-182-26-0"><rect x="324" y="73" width="182" height="26"/></clipPath><clipPath id="mx-clip-339-151-152-54-0"><rect x="339" y="151" width="152" height="54"/></clipPath><clipPath id="mx-clip-4-31-212-84-0"><rect x="4" y="31" width="212" height="84"/></clipPath></defs><g><path d="M 512.24 39.8 L 530 39.8 L 530 173 L 497.24 173" fill="none" stroke="rgb(0, 0, 0)" stroke-miterlimit="10" stroke-dasharray="3 3" pointer-events="stroke"/><path d="M 518.12 36.3 L 511.12 39.8 L 518.12 43.3" fill="none" stroke="rgb(0, 0, 0)" stroke-miterlimit="10" pointer-events="all"/><path d="M 503.12 169.5 L 496.12 173 L 503.12 176.5" fill="none" stroke="rgb(0, 0, 0)" stroke-miterlimit="10" pointer-events="all"/><path d="M 510 26 L 510 11.7 Q 510 0 498.3 0 L 331.7 0 Q 320 0 320 11.7 L 320 26" fill="#f8cecc" stroke="#b85450" stroke-miterlimit="10" pointer-events="all"/><path d="M 320 26 L 320 82.3 Q 320 94 331.7 94 L 498.3 94 Q 510 94 510 82.3 L 510 26" fill="none" stroke="#b85450" stroke-miterlimit="10" pointer-events="none"/><path d="M 320 26 L 510 26" fill="none" stroke="#b85450" stroke-miterlimit="10" pointer-events="none"/><g fill="rgb(0, 0, 0)" font-family="Helvetica" font-weight="bold" pointer-events="none" text-anchor="middle" font-size="12px"><text x="414.5" y="17.5">Tile</text></g><g fill="rgb(0, 0, 0)" font-family="Helvetica" pointer-events="none" clip-path="url(#mx-clip-324-31-182-34-0)" font-size="12px"><text x="325.5" y="43.5">+ Neighbors : List&lt;NeighborTile&gt;</text><text x="325.5" y="57.5">+ ArrivalTransform : Transform</text></g><path d="M 320 64 L 510 64" fill="none" stroke="#b85450" stroke-miterlimit="10" pointer-events="none"/><g fill="rgb(0, 0, 0)" font-family="Helvetica" pointer-events="none" clip-path="url(#mx-clip-324-73-182-26-0)" font-size="12px"><text x="325.5" y="85.5">+ CheckForNeighbors() : bool</text></g><path d="M 495 146 L 495 131.7 Q 495 120 483.3 120 L 346.7 120 Q 335 120 335 131.7 L 335 146" fill="rgb(255, 255, 255)" stroke="rgb(0, 0, 0)" stroke-miterlimit="10" pointer-events="none"/><path d="M 335 146 L 335 188.3 Q 335 200 346.7 200 L 483.3 200 Q 495 200 495 188.3 L 495 146" fill="none" stroke="rgb(0, 0, 0)" stroke-miterlimit="10" pointer-events="none"/><path d="M 335 146 L 495 146" fill="none" stroke="rgb(0, 0, 0)" stroke-miterlimit="10" pointer-events="none"/><g fill="rgb(0, 0, 0)" font-family="Helvetica" font-weight="bold" pointer-events="none" text-anchor="middle" font-size="12px"><text x="414.5" y="137.5">NeighborTile</text></g><g fill="rgb(0, 0, 0)" font-family="Helvetica" pointer-events="none" clip-path="url(#mx-clip-339-151-152-54-0)" font-size="12px"><text x="340.5" y="163.5">+ Tile : Tile</text><text x="340.5" y="177.5">+ Direction : Vector3</text><text x="340.5" y="191.5">+ Cost : float</text></g><path d="M 220 55 L 270 55 L 270 43 L 317.76 43" fill="none" stroke="rgb(0, 0, 0)" stroke-miterlimit="10" stroke-dasharray="3 3" pointer-events="none"/><path d="M 311.88 46.5 L 318.88 43 L 311.88 39.5" fill="none" stroke="rgb(0, 0, 0)" stroke-miterlimit="10" pointer-events="none"/><path d="M 220 26 L 220 11.7 Q 220 0 208.3 0 L 11.7 0 Q 0 0 0 11.7 L 0 26" fill="#d5e8d4" stroke="#82b366" stroke-miterlimit="10" pointer-events="none"/><path d="M 0 26 L 0 98.3 Q 0 110 11.7 110 L 208.3 110 Q 220 110 220 98.3 L 220 26" fill="none" stroke="#82b366" stroke-miterlimit="10" pointer-events="none"/><path d="M 0 26 L 220 26" fill="none" stroke="#82b366" stroke-miterlimit="10" pointer-events="none"/><g fill="rgb(0, 0, 0)" font-family="Helvetica" font-weight="bold" text-decoration="underline" pointer-events="none" text-anchor="middle" font-size="12px"><text x="109.5" y="17.5">PathFinder</text></g><g fill="rgb(0, 0, 0)" font-family="Helvetica" pointer-events="none" clip-path="url(#mx-clip-4-31-212-84-0)" font-size="12px"><text x="5.5" y="43.5">+ GetPath(Tile,Tile) : List&lt;Tile&gt;</text><text x="5.5" y="57.5">+ GetTilesInRange(Tile, int) : List&lt;Tile&gt;</text><text x="5.5" y="71.5">- GetFinishedLish(Tile, TIle) : List&lt;Tile&gt;</text><text x="5.5" y="85.5">- GetManhattanDistance(Tile, Tile) : int</text><text x="5.5" y="99.5">- GetNeighbors(Tile) : List&lt;Tile&gt;</text></g></g></svg>