<svg xmlns="http://www.w3.org/2000/svg" xmlns:xlink="http://www.w3.org/1999/xlink" version="1.1" width="220px" height="204px" viewBox="-0.5 -0.5 220 204"><defs><clipPath id="mx-clip-4-31-182-34-0"><rect x="4" y="31" width="182" height="34"/></clipPath><clipPath id="mx-clip-4-73-182-26-0"><rect x="4" y="73" width="182" height="26"/></clipPath><clipPath id="mx-clip-19-151-152-54-0"><rect x="19" y="151" width="152" height="54"/></clipPath></defs><g><path d="M 192.24 39.8 L 210 39.8 L 210 173 L 177.24 173" fill="none" stroke="rgb(0, 0, 0)" stroke-miterlimit="10" stroke-dasharray="3 3" pointer-events="stroke"/><path d="M 198.12 36.3 L 191.12 39.8 L 198.12 43.3" fill="none" stroke="rgb(0, 0, 0)" stroke-miterlimit="10" pointer-events="all"/><path d="M 183.12 169.5 L 176.12 173 L 183.12 176.5" fill="none" stroke="rgb(0, 0, 0)" stroke-miterlimit="10" pointer-events="all"/><path d="M 190 26 L 190 11.7 Q 190 0 178.3 0 L 11.7 0 Q 0 0 0 11.7 L 0 26" fill="#f8cecc" stroke="#b85450" stroke-miterlimit="10" pointer-events="all"/><path d="M 0 26 L 0 82.3 Q 0 94 11.7 94 L 178.3 94 Q 190 94 190 82.3 L 190 26" fill="none" stroke="#b85450" stroke-miterlimit="10" pointer-events="none"/><path d="M 0 26 L 190 26" fill="none" stroke="#b85450" stroke-miterlimit="10" pointer-events="none"/><g fill="rgb(0, 0, 0)" font-family="Helvetica" font-weight="bold" pointer-events="none" text-anchor="middle" font-size="12px"><text x="94.5" y="17.5">Tile</text></g><g fill="rgb(0, 0, 0)" font-family="Helvetica" pointer-events="none" clip-path="url(#mx-clip-4-31-182-34-0)" font-size="12px"><text x="5.5" y="43.5">+ Neighbors : List&lt;NeighborTile&gt;</text><text x="5.5" y="57.5">+ ArrivalTransform : Transform</text></g><path d="M 0 64 L 190 64" fill="none" stroke="#b85450" stroke-miterlimit="10" pointer-events="none"/><g fill="rgb(0, 0, 0)" font-family="Helvetica" pointer-events="none" clip-path="url(#mx-clip-4-73-182-26-0)" font-size="12px"><text x="5.5" y="85.5">+ CheckForNeighbors() : bool</text></g><path d="M 175 146 L 175 131.7 Q 175 120 163.3 120 L 26.7 120 Q 15 120 15 131.7 L 15 146" fill="rgb(255, 255, 255)" stroke="rgb(0, 0, 0)" stroke-miterlimit="10" pointer-events="none"/><path d="M 15 146 L 15 188.3 Q 15 200 26.7 200 L 163.3 200 Q 175 200 175 188.3 L 175 146" fill="none" stroke="rgb(0, 0, 0)" stroke-miterlimit="10" pointer-events="none"/><path d="M 15 146 L 175 146" fill="none" stroke="rgb(0, 0, 0)" stroke-miterlimit="10" pointer-events="none"/><g fill="rgb(0, 0, 0)" font-family="Helvetica" font-weight="bold" pointer-events="none" text-anchor="middle" font-size="12px"><text x="94.5" y="137.5">NeighborTile</text></g><g fill="rgb(0, 0, 0)" font-family="Helvetica" pointer-events="none" clip-path="url(#mx-clip-19-151-152-54-0)" font-size="12px"><text x="20.5" y="163.5">+ Tile : Tile</text><text x="20.5" y="177.5">+ Direction : Vector3</text><text x="20.5" y="191.5">+ Cost : float</text></g></g></svg>